# xmcd CD database file
#
# Track frame offsets:
#	150
#	25650
#	42425
#	58337
#	77500
#	104090
#	114050
#	144402
#	160430
#	184387
#	212125
#	236487
#
# Disc length: 3412 seconds
#
# Revision: 5
# Processed by: cddbd v1.5.2PL0 Copyright (c) Steve Scherf et al.
# Submitted via: CDex 1.51
#
DISCID=a50d520c
DTITLE=Lucky Peterson - Lifetime
DYEAR=1995
DGENRE=Blues
TTITLE0=Bad Condition
TTITLE1=Shining Star
TTITLE2=We'll Be Together
TTITLE3=Lifetime
TTITLE4=Next In Line
TTITLE5=Blue Interlude
TTITLE6=Wash My Back
TTITLE7=I Ain't Buyin'
TTITLE8=Ham-Buger
TTITLE9=Bird In The Hand
TTITLE10=Hide Away
TTITLE11=A Change Is Gonna Come
EXTD=YEAR: 1995
EXTT0=
EXTT1=
EXTT2=
EXTT3=
EXTT4=
EXTT5=
EXTT6=
EXTT7=
EXTT8=
EXTT9=
EXTT10=
EXTT11=
PLAYORDER=
